<?xml version="1.0" encoding="UTF-8"?>
<svg width="128px" height="77px" viewBox="0 0 128 77" version="1.1" xmlns="http://www.w3.org/2000/svg" xmlns:xlink="http://www.w3.org/1999/xlink">
    <!-- Generator: Sketch 43.2 (39069) - http://www.bohemiancoding.com/sketch -->
    <title>Group</title>
    <desc>Created with Sketch.</desc>
    <defs></defs>
    <g id="Page-1" stroke="none" stroke-width="1" fill="none" fill-rule="evenodd">
        <g id="Group">
            <rect id="Rectangle" stroke="#65DA74" stroke-width="7" x="3.5" y="3.5" width="121" height="70" rx="8"></rect>
            <rect id="Rectangle-2" fill="#F2F2F2" x="7" y="7" width="114" height="63"></rect>
            <rect id="Rectangle-3" fill="#2B2B2B" x="18" y="17" width="9" height="9"></rect>
            <rect id="Rectangle-3" fill="#2B2B2B" x="95" y="34" width="17" height="9"></rect>
            <rect id="Rectangle-3" fill="#2B2B2B" x="44" y="51" width="43" height="9"></rect>
            <rect id="Rectangle-3" fill="#767676" x="61" y="34" width="9" height="9"></rect>
            <rect id="Rectangle-3" fill="#767676" x="18" y="34" width="17" height="9"></rect>
            <rect id="Rectangle-3" fill="#65DA74" x="18" y="51" width="17" height="9"></rect>
            <rect id="Rectangle-3" fill="#65DA74" x="44" y="34" width="9" height="9"></rect>
            <rect id="Rectangle-3" fill="#65DA74" x="95" y="51" width="17" height="9"></rect>
            <rect id="Rectangle-3" fill="#767676" x="35" y="17" width="9" height="9"></rect>
            <rect id="Rectangle-3" fill="#767676" x="69" y="17" width="9" height="9"></rect>
            <rect id="Rectangle-3" fill="#767676" x="86" y="17" width="9" height="9"></rect>
            <rect id="Rectangle-3" fill="#767676" x="103" y="17" width="9" height="9"></rect>
            <rect id="Rectangle-3" fill="#767676" x="78" y="34" width="9" height="9"></rect>
            <rect id="Rectangle-3" fill="#767676" x="52" y="17" width="9" height="9"></rect>
        </g>
    </g>
</svg>